<svg xmlns="http://www.w3.org/2000/svg" version="1.1" viewBox="0 0 915.26 181.15"><title>fledgewright</title><path fill-rule="evenodd" fill="#EAE4CC" d="M82.39,125.95c-.72-2.27-1.08-11.87-1.08-28.8v-42.67c0-13.12.47-27.78,1.41-43.99l-1.41-1c-6.67,3.16-15.54,5.28-26.59,6.36.03-1.47.11-3.23.23-5.28-2.66-.72-5.07-1.08-7.24-1.08-3.27,0-5.99.64-8.15,1.91-3.27,1.89-7.85,5.9-13.72,12.06-4.44,4.6-7.39,8.59-8.86,11.97s-2.2,7.76-2.2,13.14v10.56c-4.04,2.14-8.02,4.17-11.95,6.09v3.46l11.95-.75v32.29c0,15.11-.53,23.82-1.58,26.15-.78,1.72-3.32,2.57-7.64,2.57H0v4.81l26.28-.58c3.94,0,10.45.19,19.54.58v-4.81h-7.3c-4.65,0-7.43-.91-8.34-2.74-.91-1.83-1.37-10.49-1.37-25.98v-32.29c4.87-.17,8.55-.25,11.04-.25l10.21.25,1.33-7.97-.58-.83c-5.7.5-13.03.78-22,.83v-11.06c0-12.26.98-19.96,2.95-23.13,1.96-3.16,5.27-4.74,9.92-4.74,4.2,0,7.94,1.44,11.21,4.32l2.08-.91c-.07-1.28-.13-2.44-.17-3.49h5.69c2.82,0,4.68.44,5.56,1.33.61.61.91,2.27.91,4.98l.25,10.87.08,15.94v42.42c0,17.49-.36,27.31-1.08,29.47-.44,1.33-2.24,2.13-5.4,2.41l-7.14.58v4.81c9.87-.39,17.85-.58,23.95-.58,5.49,0,11.26.19,17.3.58v-4.81l-7.06-.75c-3.27-.33-5.09-1.08-5.48-2.24ZM138.63,53.49c-6.47,0-13.14,1.91-20,5.73-6.86,3.82-11.57,7.97-14.11,12.45-3.87,6.81-5.81,14.86-5.81,24.16,0,12.17,3.44,21.82,10.33,28.93,6.89,7.11,15.95,10.67,27.18,10.67,5.15,0,10.15-.66,15.02-1.99,4.87-1.33,9.6-3.32,14.19-5.98l2.66-6.97-1.41-1.25c-3.76,2.55-7.54,4.46-11.36,5.73-3.81,1.27-7.65,1.91-11.52,1.91-8.62,0-15.58-2.82-20.89-8.47-5.3-5.64-8.09-13.92-8.37-24.82h20.72c10.5,0,18.7-.22,24.62-.66,3.32-.28,6.8-.86,10.44-1.74l.17-4.9c0-10.35-2.86-18.4-8.59-24.16-5.73-5.75-13.49-8.63-23.28-8.63ZM155.15,87.35c-3.87.39-7.89.58-12.04.58-10.35,0-19.81-.19-28.39-.58.11-9.57,2.02-16.63,5.73-21.17,3.71-4.54,8.66-6.81,14.86-6.81,3.98,0,7.5.9,10.54,2.7,3.04,1.8,5.17,4.05,6.39,6.77,1.94,4.37,2.91,8.99,2.91,13.86v4.65ZM255.97,125.2c-.55-1.05-.83-6.2-.83-15.45v-49.59l.17-7.14.33-22.1c.28-7.97.61-14.78,1-20.43l-1.5-1c-8.55,3.39-17.76,5.4-27.64,6.06v4.98h7.14c2.77,0,4.54.44,5.31,1.33.77.89,1.16,3.08,1.16,6.57v30.11c-3.54-1.71-6.98-2.99-10.32-3.82-3.34-.83-6.59-1.25-9.74-1.25-4.64,0-9.7,1.36-15.17,4.07-7.13,3.6-12.38,6.57-15.75,8.92-3.37,2.35-6.27,6.13-8.7,11.33-2.43,5.2-3.65,11.48-3.65,18.84,0,11.79,3.15,21.2,9.45,28.22,6.3,7.03,14.12,10.54,23.46,10.54,3.59,0,7.74-.77,12.43-2.32,7.29-6.56,13.29-11.65,17.99-15.29-.22,6.89-.53,12.2-.91,15.95,6.05-.5,9.55-.75,10.49-.75,5.22,0,11.24.25,18.06.75v-4.81l-5.89-.75c-3.76-.5-6.06-1.5-6.89-2.99ZM241.11,93.12c0,8.42-.86,14.6-2.57,18.54-1.71,3.94-4.42,7.13-8.12,9.6-3.7,2.47-7.76,3.7-12.18,3.7-7.24,0-13.38-2.95-18.44-8.85-5.06-5.9-7.58-14.03-7.58-24.39s2.21-17.94,6.63-23.23c4.42-5.29,10.25-7.94,17.48-7.94,4.47,0,8.77,1.03,12.89,3.08,4.12,2.05,8.08,5.13,11.89,9.23v20.28ZM345.42,60.38h-6.97c-3.32-2.66-6.57-4.54-9.75-5.64-3.18-1.11-6.88-1.66-11.08-1.66-6.64,0-13.53,1.69-20.67,5.07-5.59,2.66-9.82,6.29-12.7,10.89-2.88,4.6-4.32,9.7-4.32,15.3,0,6.37,1.94,11.61,5.81,15.71,2.93,3.05,7.71,5.4,14.35,7.07l-8.04,5.71c-2.93,1.99-4.75,3.67-5.47,5.05-1.27,2.26-1.91,4.55-1.91,6.87,0,1.93.65,3.52,1.95,4.76,1.3,1.24,4.22,2.61,8.75,4.1-3.93,2.77-8.77,5.51-14.52,8.22-3.21,4.59-4.81,9.13-4.81,13.61,0,7.25,3.07,13.35,9.21,18.3,6.14,4.95,14.91,7.43,26.31,7.43,9.35,0,17.62-1.72,24.82-5.15,7.19-3.44,12.67-7.99,16.44-13.67,3.76-5.68,5.64-11.62,5.64-17.83,0-4.43-.83-8.41-2.49-11.93-1.66-3.52-3.65-5.98-5.98-7.4-2.32-1.41-5.67-2.12-10.04-2.12-3.04,0-7.97.16-14.78.47-4.76.19-8.41.28-10.96.28-6.64,0-11.04-.61-13.2-1.82-2.16-1.21-3.24-2.86-3.24-4.96,0-1.27.48-2.56,1.45-3.88s3.27-3.33,6.91-6.03l3.9.08c6.42,0,12.4-1.4,17.94-4.2,5.54-2.8,9.8-6.49,12.79-11.06,2.99-4.58,4.48-9.33,4.48-14.27,0-2.27-.64-5.19-1.91-8.74h15.36c1.27-2.62,2.74-5.14,4.4-7.54l-.91-1.76c-3.98.5-9.57.75-16.77.75ZM300.08,136.25c1.44-.89,4.12-1.33,8.04-1.33h19.4c4.53,0,7.43.19,8.7.58,2.49.78,4.63,2.52,6.42,5.24,1.8,2.72,2.69,5.88,2.69,9.48,0,4.21-1.29,8.3-3.85,12.27-2.57,3.96-6.17,7.08-10.82,9.36-4.64,2.27-10.03,3.41-16.16,3.41-7.96,0-14.17-1.97-18.65-5.91-4.48-3.94-6.71-8.93-6.71-14.97,0-4.38.83-8.01,2.49-10.9.99-1.83,3.81-4.24,8.45-7.24ZM325.86,96.84c-3.3,3.53-7.61,5.29-12.94,5.29s-9.75-2.1-13.27-6.29-5.28-9.99-5.28-17.37c0-6.11,1.62-10.89,4.87-14.33,3.25-3.44,7.53-5.17,12.85-5.17s9.84,2.11,13.39,6.33c3.55,4.22,5.33,9.81,5.33,16.75,0,6.33-1.65,11.26-4.95,14.79ZM403.15,53.49c-6.47,0-13.14,1.91-20,5.73-6.86,3.82-11.57,7.97-14.11,12.45-3.87,6.81-5.81,14.86-5.81,24.16,0,12.17,3.44,21.82,10.33,28.93,6.89,7.11,15.95,10.67,27.18,10.67,5.15,0,10.15-.66,15.02-1.99,4.87-1.33,9.6-3.32,14.19-5.98l2.66-6.97-1.41-1.25c-3.76,2.55-7.54,4.46-11.36,5.73-3.81,1.27-7.65,1.91-11.52,1.91-8.62,0-15.58-2.82-20.89-8.47-5.3-5.64-8.09-13.92-8.37-24.82h20.72c10.5,0,18.7-.22,24.62-.66,3.32-.28,6.8-.86,10.44-1.74l.17-4.9c0-10.35-2.86-18.4-8.59-24.16-5.73-5.75-13.49-8.63-23.28-8.63ZM419.67,87.35c-3.87.39-7.89.58-12.04.58-10.35,0-19.81-.19-28.39-.58.11-9.57,2.02-16.63,5.73-21.17,3.71-4.54,8.66-6.81,14.86-6.81,3.98,0,7.5.9,10.54,2.7,3.04,1.8,5.17,4.05,6.39,6.77,1.94,4.37,2.91,8.99,2.91,13.86v4.65ZM539.34,55.15v4.81h5.48c2.38,0,4.14.39,5.27,1.16,1.13.77,1.7,1.8,1.7,3.07,0,.83-.14,1.94-.42,3.32-.72,3.37-2.3,8.4-4.73,15.09l-12.7,33.97-17.1-43.41c-2.55-6.2-5.01-12.67-7.39-19.42h-4.15c-3.49,8.75-6.58,16.16-9.3,22.25l-17.93,39.19c-9.45-31.56-14.17-48.69-14.17-51.4,0-1.22.5-2.1,1.49-2.65,1.27-.77,3.62-1.16,7.06-1.16h4.48v-4.81c-8.96.39-15.75.58-20.34.58s-11.46-.19-20.27-.58v4.81h4.15c1.83,0,3.44.48,4.86,1.45,1.41.97,2.48,2.36,3.2,4.19l5.31,16.67c5.86,18.85,11.12,36.26,15.77,52.24h8.47c2.04-6.07,4.14-11.65,6.3-16.73,4.81-11.26,11.08-25.09,18.82-41.48l10.56,26.66c5.6,14.13,9.64,24.65,12.14,31.55h8.05c3.65-12.11,8.74-25.81,15.27-41.13,7.8-18.35,12.56-28.51,14.28-30.47,1.71-1.96,3.54-2.94,5.48-2.94h3.74v-4.81c-4.54.39-9.24.58-14.11.58-5.59,0-12.01-.19-19.25-.58ZM668,126.45c-.83-.77-1.36-2.16-1.58-4.15-.5-5.09-.75-11.23-.75-18.43,0-7.69.19-19.62.58-35.78.11-4.98.36-9.55.75-13.7l-1.99-1.25c-5.04,1.97-9.15,3.36-12.33,4.18-3.18.82-8.15,1.72-14.9,2.71v4.81h6.23c2.99,0,4.91.36,5.77,1.08.86.72,1.34,1.94,1.45,3.66.28,4.66.42,11.29.42,19.89,0,12.37-.14,22.08-.42,29.13-.17,4.55-.57,7.23-1.2,8.03-.64.8-2.34,1.32-5.1,1.54l-7.14.75v4.81c6.64-.39,13.23-.58,19.76-.58s14,.19,22.08.58v-4.81l-5.64-.75c-3.15-.39-5.15-.97-5.98-1.74ZM771.98,61.39l-.91-1.76c-3.98.5-9.57.75-16.77.75h-6.97c-3.32-2.66-6.57-4.54-9.75-5.64-3.18-1.11-6.88-1.66-11.08-1.66-6.64,0-13.53,1.69-20.67,5.07-5.59,2.66-9.82,6.29-12.7,10.89-2.88,4.6-4.32,9.7-4.32,15.3,0,6.37,1.94,11.61,5.81,15.71,2.93,3.05,7.71,5.4,14.35,7.07l-8.04,5.71c-2.93,1.99-4.75,3.67-5.47,5.05-1.27,2.26-1.91,4.55-1.91,6.87,0,1.93.65,3.52,1.95,4.76,1.3,1.24,4.22,2.61,8.75,4.1-3.93,2.77-8.77,5.51-14.52,8.22-3.21,4.59-4.81,9.13-4.81,13.61,0,7.25,3.07,13.35,9.21,18.3,6.14,4.95,14.91,7.43,26.31,7.43,9.35,0,17.62-1.72,24.82-5.15,7.19-3.44,12.67-7.99,16.44-13.67,3.76-5.68,5.64-11.62,5.64-17.83,0-4.43-.83-8.41-2.49-11.93-1.66-3.52-3.65-5.98-5.98-7.4-2.32-1.41-5.67-2.12-10.04-2.12-3.04,0-7.97.16-14.78.47-4.76.19-8.41.28-10.96.28-6.64,0-11.04-.61-13.2-1.82-2.16-1.21-3.24-2.86-3.24-4.96,0-1.27.48-2.56,1.45-3.88.97-1.32,3.27-3.33,6.91-6.03l3.9.08c6.42,0,12.4-1.4,17.94-4.2,5.54-2.8,9.8-6.49,12.79-11.06,2.99-4.58,4.48-9.33,4.48-14.27,0-2.27-.64-5.19-1.91-8.74h15.36c1.27-2.62,2.74-5.14,4.4-7.54ZM708.96,136.25c1.44-.89,4.12-1.33,8.04-1.33h19.4c4.53,0,7.43.19,8.7.58,2.49.78,4.63,2.52,6.42,5.24,1.8,2.72,2.69,5.88,2.69,9.48,0,4.21-1.29,8.3-3.85,12.27-2.57,3.96-6.18,7.08-10.82,9.36-4.64,2.27-10.03,3.41-16.16,3.41-7.96,0-14.17-1.97-18.65-5.91-4.48-3.94-6.71-8.93-6.71-14.97,0-4.38.83-8.01,2.49-10.9.99-1.83,3.81-4.24,8.45-7.24ZM734.74,96.84c-3.3,3.53-7.61,5.29-12.94,5.29s-9.75-2.1-13.27-6.29c-3.52-4.19-5.28-9.99-5.28-17.37,0-6.11,1.62-10.89,4.87-14.33,3.25-3.44,7.53-5.17,12.85-5.17s9.84,2.11,13.39,6.33c3.55,4.22,5.33,9.81,5.33,16.75,0,6.33-1.65,11.26-4.95,14.79ZM854.32,126.95c-.75-.66-1.2-1.66-1.37-2.99-.44-3.21-.66-7.58-.66-13.12l.5-24.57c0-9.24-.87-15.78-2.61-19.63-1.74-3.85-4.87-7-9.38-9.46-4.51-2.46-9.84-3.69-15.98-3.69-3.49,0-6.46.44-8.92,1.33-2.46.89-4.97,2.52-7.51,4.9l-10.87,9.55v-22.22c0-4.15.14-9.98.42-17.49l.5-14.92.25-3.4c0-1.16-.44-1.74-1.33-1.74l-6.81,2.32c-5.15,1.61-12.01,2.85-20.59,3.74v5.06h5.73c3.98,0,6.23.61,6.72,1.82.77,1.77,1.16,10.04,1.16,24.8v55.99c0,10.4-.19,17.09-.58,20.07-.28,1.88-.83,3.08-1.66,3.61-.83.53-2.88.98-6.14,1.37l-5.23.66v4.81c8.85-.39,16.02-.58,21.5-.58s12.2.19,20.83.58v-4.81l-7.22-.66c-3.82-.33-6.03-1.19-6.64-2.57-.61-1.38-.91-8.66-.91-21.83v-14.44c0-7.69.5-12.56,1.49-14.61,1.44-2.88,4.04-5.41,7.8-7.6,3.76-2.19,7.94-3.28,12.53-3.28s8.19.94,11.12,2.82c2.93,1.88,4.97,4.43,6.1,7.64,1.13,3.21,1.7,9.33,1.7,18.34,0,13.45-.5,27.12-1.49,41.01,4.32-.39,8.66-.58,13.03-.58,5.09,0,10.32.19,15.69.58v-4.81l-6.31-.66c-2.49-.22-4.11-.66-4.86-1.33ZM895,68.51l15.94-.08,3.4.08.91-8.55-6.64.33c-4.26.17-9.77.25-16.52.25.5-16.1.97-26.31,1.41-30.63l-2.17-1.66c-2.84,1.66-7.48,3.85-13.93,6.56.39,9.24.61,17.82.66,25.73-4.04,1.99-8.44,3.9-13.2,5.73v3.57c4.54-.39,8.94-.58,13.2-.58v31.54l-.33,16.02c0,4.76.64,8.32,1.92,10.67,1.28,2.35,3.34,4.26,6.17,5.73,2.84,1.47,6.31,2.2,10.42,2.2,1.56,0,3.17-.17,4.84-.5s3.39-.8,5.17-1.41l8.09-9.48-2.41-2.89c-1.49,1.27-3,2.23-4.52,2.86-1.52.64-3.09.95-4.69.95-2.6,0-4.75-.66-6.43-1.99-1.69-1.33-2.81-3.19-3.36-5.57-.55-2.38-.83-7.81-.83-16.29v-32.59h2.91Z"/><path fill-rule="evenodd" fill="#EAE4CC" d="M634.9,50.37c.77-.41,1.53-.82,2.3-1.23.86-.34,1.71-.68,2.57-1.02,1.05-.84,1.86-5.57,2.14-6.81.43-1.87,1.51-5.18,1.4-5.56-.12-.38-.27-.29-.4-.44-4.21.01-4.86,7.3-6.57,10.43-1.47,1.34-2.95,2.68-4.42,4.02.99.2,1.99.4,2.98.6ZM635.63,50.54c.71.46,1.43.92,2.14,1.38,1.64.07,7.5-.84,8.76-1.73,1.74-2.31,3.47-4.62,5.21-6.93,1.09-1.18,3.18-3.89,3.05-4.29-.13-.4-.39-.38-.58-.58-5.05-.64-6.92,5.98-11.26,9.05-2.44,1.03-4.88,2.07-7.32,3.1ZM658.62,46.97c-4.82-1.14-8.62,2.74-12.9,4.15-2.35.45-4.71.9-7.06,1.34-.34.1-.03,2.75-2.15,3.42-4.5,1.43-9.82-.03-14,2.91-.08-.02-.16-.04-.24-.06,1.65-1.26,3.4-1.98,5.23-2.36,2.77-.58,7.12.6,9.69-1.51.29-.24.48-.73.56-1.09.08-.53-.19-1.1-.63-1.58-2.21-2.4-7.75-1.81-9.74-1.63-3.71.33-8.63-1.04-12.21-.04-3.09.59-7.21,1.53-11.54,6.41-.17-.3-.54-.23-.48-.96.02-1.05.44-1.2-.17-2.4-.18-.36-.64-.5-1.25-.5-.5,0-1.13.19-1.91.58-3.27,1.49-7,2.73-11.21,3.69-4.21.97-8.99,1.76-14.36,2.37v4.81h6.97c3.82,0,6.09.75,6.81,2.24,1.05,2.32,1.58,10.16,1.58,23.49,0,10.96-.19,20.42-.58,28.39-.22,4.54-.71,7.22-1.45,8.05-.75.83-2.53,1.36-5.35,1.58l-7.97.66v4.81c7.19-.39,14.47-.58,21.83-.58s15.61.19,24.07.58v-4.81h-4.98c-4.1,0-7.19-.58-9.3-1.74-.89-.5-1.44-1.71-1.66-3.65-.61-5.25-.91-11.72-.91-19.4,0-11.66.47-19.48,1.41-23.46.87-2.8,8.81-13.49,12.92-15.62,4.11-2.14,13.14-3.29,14.82-3.46,1.68-.17,4.54-1.98,6.8-2.97,4.42-1.61,8.34-2.47,12.61-5.54,2.26-1.63,7.28-4.83,7.32-5.31.05-.57-.3-.68-.56-.82ZM632.17,39.13c.05-.54.16-1.03.19-1.37.03-.35-.26-.87-.59-.97-.22-.03-.5.08-.73.18-2.75,1.14-2.6,7.09-3.42,9.25-1.06,1.22-2.12,2.45-3.18,3.67,1.82-.03,3.65-.07,5.47-.1,2.2-1.34,1.98-7.36,2.26-10.66Z"/><path fill-rule="evenodd" fill="#C8972F" d="M676.27,17.69h-.17c.31-1.42.53-3.32-.17-4.55C673.37,8.64,658.3.17,651.3,0c1.8,1.4,3.6,2.81,5.4,4.21h-.51c1.35,1.07,2.7,2.13,4.05,3.2-.45-.11-.9-.22-1.35-.34-.06.06-.11.11-.17.17,1.24,1.01,2.47,2.02,3.71,3.03-.39-.11-.79-.22-1.18-.34-.06.06-.11.11-.17.17,1.07.95,2.14,1.91,3.21,2.86-.39-.06-.79-.11-1.18-.17,1.25,1.51,5,3.66,3.54,7.08-1.31,3.46-12.33,6.34-16.53,7.58-1.76.52-3.95.5-5.23,1.52,3.26-.22,6.52-.45,9.79-.67-2.08,1.46-4.16,2.92-6.24,4.38,7.24-2.03,11.37-5.74,21.43-5.56,1.06,2.28-.74,4.49-1.35,6.23.28-.17.56-.34.84-.51-.73,1.18-1.46,2.36-2.19,3.54.34-.11.68-.22,1.01-.34-.79,1.12-1.57,2.25-2.36,3.37.22-.06.45-.11.67-.17-.62.79-1.24,1.57-1.86,2.36-.22.22-.45.45-.67.67,5.52-1.18,15.59-11.48,15.52-18.37,1.51-1.69,3.75-4.48,6.75-4.55-2.28-2.67-6.29-3.54-9.95-1.69Z"/></svg>